<svg width="300" height="300" viewBox="0 0 300 300" fill="none" xmlns="http://www.w3.org/2000/svg">
  <style>
    @media (prefers-color-scheme: dark) {
      .bg { fill: #000000; }
      .fg { fill: #ffffff; }
    }
    @media (prefers-color-scheme: light) {
      .bg { fill: #ffffff; }
      .fg { fill: #000000; }
    }
  </style>
  <rect width="300" height="300" rx="112.5" class="bg"/>
  <path d="M111.608 63.668H127.928V76.724C127.928 87.988 126.008 98.484 122.168 108.212C118.456 117.94 112.888 126.324 105.464 133.364C98.1675 140.404 89.2075 145.78 78.5835 149.492L68.5995 133.364C77.9435 130.292 85.7515 125.94 92.0235 120.308C98.4235 114.548 103.288 107.956 106.616 100.532C109.944 92.98 111.608 85.044 111.608 76.724V63.668ZM115.448 63.668H131.768V76.34C131.768 84.02 133.304 91.316 136.376 98.228C139.576 105.012 144.248 111.028 150.392 116.276C156.664 121.524 164.28 125.62 173.24 128.564L162.872 144.116C152.76 140.66 144.12 135.668 136.952 129.14C129.912 122.484 124.536 114.676 120.824 105.716C117.24 96.628 115.448 86.836 115.448 76.34V63.668ZM187.448 56.948H207.416V150.26H187.448V56.948ZM199.16 93.62H232.184V110.132H199.16V93.62ZM84.7275 158.324H141.176V200.564H104.504V222.452H85.1115V186.356H121.784V173.3H84.7275V158.324ZM151.16 158.324H207.416V231.092H151.16V158.324ZM189.944 173.3H168.632V216.308H189.944V173.3ZM85.1115 215.924H94.9035C102.456 215.924 108.984 215.86 114.488 215.732C119.992 215.604 125.112 215.348 129.848 214.964C134.584 214.452 139.448 213.684 144.44 212.66L146.168 228.02C140.92 228.916 135.8 229.556 130.808 229.94C125.944 230.452 120.632 230.772 114.872 230.9C109.24 231.028 102.584 231.092 94.9035 231.092H85.1115V215.924Z" class="fg"/>
</svg>